<svg version="1.1" xmlns="http://www.w3.org/2000/svg" xmlns:xlink="http://www.w3.org/1999/xlink" width="65.23955" height="13.0189" viewBox="0,0,65.23955,13.0189"><defs><linearGradient x1="269.23018" y1="181.53725" x2="272.64883" y2="181.53725" gradientUnits="userSpaceOnUse" id="color-1"><stop offset="0" stop-color="#666666"/><stop offset="1" stop-color="#333333"/></linearGradient><linearGradient x1="255.93144" y1="181.22606" x2="255.93144" y2="178.57671" gradientUnits="userSpaceOnUse" id="color-2"><stop offset="0" stop-color="#4d4d4d"/><stop offset="1" stop-color="#333333"/></linearGradient><linearGradient x1="209.05826" y1="169.32757" x2="214.18348" y2="169.32757" gradientUnits="userSpaceOnUse" id="color-3"><stop offset="0" stop-color="#262626"/><stop offset="1" stop-color="#1a1a1a"/></linearGradient><linearGradient x1="208.73031" y1="173.99375" x2="215.97612" y2="173.99375" gradientUnits="userSpaceOnUse" id="color-4"><stop offset="0" stop-color="#333333"/><stop offset="1" stop-color="#1a1a1a"/></linearGradient><linearGradient x1="228.45434" y1="181.54902" x2="228.45434" y2="173.58841" gradientUnits="userSpaceOnUse" id="color-5"><stop offset="0" stop-color="#333333"/><stop offset="1" stop-color="#1a1a1a"/></linearGradient><linearGradient x1="219.36999" y1="171.7114" x2="226.94676" y2="171.63718" gradientUnits="userSpaceOnUse" id="color-6"><stop offset="0" stop-color="#4d4d4d"/><stop offset="1" stop-color="#1a1a1a"/></linearGradient><linearGradient x1="220.86581" y1="173.30297" x2="221.78851" y2="173.37056" gradientUnits="userSpaceOnUse" id="color-7"><stop offset="0" stop-color="#262626"/><stop offset="1" stop-color="#262626"/></linearGradient><linearGradient x1="252.94062" y1="178.59075" x2="252.94062" y2="174.38123" gradientUnits="userSpaceOnUse" id="color-8"><stop offset="0" stop-color="#404040"/><stop offset="1" stop-color="#1a1a1a"/></linearGradient><linearGradient x1="265.85178" y1="180.43861" x2="268.20675" y2="180.43861" gradientUnits="userSpaceOnUse" id="color-9"><stop offset="0" stop-color="#262626"/><stop offset="1" stop-color="#333333"/></linearGradient><linearGradient x1="272.0167" y1="181.35608" x2="272.0167" y2="178.51074" gradientUnits="userSpaceOnUse" id="color-10"><stop offset="0" stop-color="#262626"/><stop offset="1" stop-color="#333333"/></linearGradient><linearGradient x1="214.8144" y1="178.47662" x2="219.62528" y2="178.47662" gradientUnits="userSpaceOnUse" id="color-11"><stop offset="0" stop-color="#404040"/><stop offset="1" stop-color="#262626"/></linearGradient><linearGradient x1="255.90004" y1="176.48947" x2="265.08445" y2="176.48947" gradientUnits="userSpaceOnUse" id="color-12"><stop offset="0" stop-color="#1a1a1a"/><stop offset="1" stop-color="#404040"/></linearGradient><linearGradient x1="230.68666" y1="180.52984" x2="230.68666" y2="177.96039" gradientUnits="userSpaceOnUse" id="color-13"><stop offset="0" stop-color="#000000"/><stop offset="1" stop-color="#1a1a1a"/></linearGradient><linearGradient x1="230.22197" y1="176.10164" x2="230.22197" y2="174.78958" gradientUnits="userSpaceOnUse" id="color-14"><stop offset="0" stop-color="#262626"/><stop offset="1" stop-color="#333333"/></linearGradient><linearGradient x1="228.22655" y1="182.27925" x2="228.22655" y2="181.51388" gradientUnits="userSpaceOnUse" id="color-15"><stop offset="0" stop-color="#4d4d4d"/><stop offset="1" stop-color="#404040"/></linearGradient><linearGradient x1="237.13761" y1="177.63237" x2="239.48838" y2="177.63237" gradientUnits="userSpaceOnUse" id="color-16"><stop offset="0" stop-color="#262626"/><stop offset="1" stop-color="#404040"/></linearGradient><linearGradient x1="241.74075" y1="178.24981" x2="241.74075" y2="174.34644" gradientUnits="userSpaceOnUse" id="color-17"><stop offset="0" stop-color="#1a1a1a"/><stop offset="1" stop-color="#262626"/></linearGradient><linearGradient x1="243.80724" y1="178.17328" x2="243.80724" y2="174.49952" gradientUnits="userSpaceOnUse" id="color-18"><stop offset="0" stop-color="#1a1a1a"/><stop offset="1" stop-color="#262626"/></linearGradient><linearGradient x1="242.73572" y1="178.17328" x2="242.73572" y2="174.2699" gradientUnits="userSpaceOnUse" id="color-19"><stop offset="0" stop-color="#1a1a1a"/><stop offset="1" stop-color="#262626"/></linearGradient><linearGradient x1="244.80222" y1="178.09674" x2="244.80222" y2="174.42298" gradientUnits="userSpaceOnUse" id="color-20"><stop offset="0" stop-color="#1a1a1a"/><stop offset="1" stop-color="#262626"/></linearGradient><linearGradient x1="245.72066" y1="178.24981" x2="245.72066" y2="174.34644" gradientUnits="userSpaceOnUse" id="color-21"><stop offset="0" stop-color="#1a1a1a"/><stop offset="1" stop-color="#262626"/></linearGradient><linearGradient x1="247.78715" y1="178.17328" x2="247.78715" y2="174.49952" gradientUnits="userSpaceOnUse" id="color-22"><stop offset="0" stop-color="#1a1a1a"/><stop offset="1" stop-color="#262626"/></linearGradient><linearGradient x1="246.71563" y1="178.17328" x2="246.71563" y2="174.2699" gradientUnits="userSpaceOnUse" id="color-23"><stop offset="0" stop-color="#1a1a1a"/><stop offset="1" stop-color="#262626"/></linearGradient><linearGradient x1="248.78213" y1="178.09674" x2="248.78213" y2="174.42298" gradientUnits="userSpaceOnUse" id="color-24"><stop offset="0" stop-color="#1a1a1a"/><stop offset="1" stop-color="#262626"/></linearGradient><linearGradient x1="249.54749" y1="178.09674" x2="249.54749" y2="174.19337" gradientUnits="userSpaceOnUse" id="color-25"><stop offset="0" stop-color="#1a1a1a"/><stop offset="1" stop-color="#262626"/></linearGradient><linearGradient x1="251.61398" y1="178.0202" x2="251.61398" y2="174.34644" gradientUnits="userSpaceOnUse" id="color-26"><stop offset="0" stop-color="#1a1a1a"/><stop offset="1" stop-color="#262626"/></linearGradient><linearGradient x1="250.54247" y1="178.0202" x2="250.54247" y2="174.11683" gradientUnits="userSpaceOnUse" id="color-27"><stop offset="0" stop-color="#1a1a1a"/><stop offset="1" stop-color="#262626"/></linearGradient><linearGradient x1="252.60896" y1="177.94367" x2="252.60896" y2="174.2699" gradientUnits="userSpaceOnUse" id="color-28"><stop offset="0" stop-color="#1a1a1a"/><stop offset="1" stop-color="#262626"/></linearGradient></defs><g transform="translate(-208.14845,-168.85)"><g data-paper-data="{&quot;isPaintingLayer&quot;:true}" fill-rule="nonzero" stroke-linejoin="miter" stroke-miterlimit="10" stroke-dasharray="" stroke-dashoffset="0" style="mix-blend-mode: normal"><g><path d="M272.64883,181.20558v0.66332l-3.41865,-0.66332z" data-paper-data="{&quot;index&quot;:null}" fill="url(#color-1)" stroke="#0d0d0d" stroke-width="0" stroke-linecap="butt"/><path d="M272.79895,178.57671v2.64935h-33.73502v-2.64935z" data-paper-data="{&quot;index&quot;:null}" fill="url(#color-2)" stroke-opacity="0.50196" stroke="#80ffff" stroke-width="0" stroke-linecap="butt"/><path d="M208.14845,169.13595c0,0 2.20565,-0.30326 3.1087,-0.28517c0.96593,0.01935 2.51096,0.39773 2.51096,0.39773l0.10698,0.50937l-5.32935,-0.08863l-0.39729,-0.53329z" data-paper-data="{&quot;index&quot;:null}" fill="url(#color-3)" stroke-opacity="0.50196" stroke="#80ffff" stroke-width="0" stroke-linecap="butt"/><path d="M213.37934,169.31954c0,0 0.51918,1.72401 1.06955,3.09116c0.39995,0.99348 1.83338,2.37575 1.83338,2.37575l-2.30704,3.95804c0,0 -2.1263,-1.7123 -3.67479,-4.19262c-1.69493,-2.71489 -1.89599,-5.23233 -1.89599,-5.23233z" data-paper-data="{&quot;index&quot;:null}" fill="url(#color-4)" stroke="none" stroke-width="0" stroke-linecap="butt"/><path d="M231.92757,174.63385l4.90751,-1.04543l2.75535,0.38347v7.57713l-19.97608,-0.15308l-2.51478,-0.8419l0.6779,-5.96986z" data-paper-data="{&quot;index&quot;:null}" fill="url(#color-5)" stroke-opacity="0.50196" stroke="#80ffff" stroke-width="0" stroke-linecap="butt"/><path d="M219.83406,172.20435c0,0 0.90569,-0.69701 1.57752,-0.67037c1.91133,0.07578 1.43888,-0.12108 2.40192,0.36135c0.2546,0.12754 0.68677,1.02508 1.53325,1.66646c0.84507,0.64029 2.00562,1.09934 2.00562,1.09934c0,0 -3.70356,-0.1487 -3.86006,0.0608c-0.4368,0.58473 0.60263,-0.65658 0.816,-1.34536c0.12276,-0.39626 -0.68937,-1.20455 -0.68937,-1.20455c0,0 -2.6745,-0.73733 -3.76721,0.37561c-0.35471,0.36127 -0.37772,0.65214 -0.29038,0.94108c0.33946,1.12301 1.13654,1.12298 1.13654,1.12298l-2.86419,0.02875l2.00036,-2.43608z" data-paper-data="{&quot;index&quot;:null}" fill="url(#color-6)" stroke-opacity="0.50196" stroke="#80ffff" stroke-width="0" stroke-linecap="butt"/><path d="M220.56822,172.18485c0,0 -0.18741,0.99653 -0.09884,1.42323c0.0924,0.44506 1.64023,1.1353 1.64023,1.1353l-1.46793,-0.10753c0,0 -0.80016,-0.60724 -0.77423,-1.27699c0.0281,-0.72602 0.70077,-1.174 0.70077,-1.174z" data-paper-data="{&quot;index&quot;:null}" fill="url(#color-7)" stroke-opacity="0.50196" stroke="#80ffff" stroke-width="0" stroke-linecap="butt"/><path d="M243.41851,173.2725l10.2525,0.63695l2.22215,0.58953l0.11775,4.26839l-16.50249,0.11039l0.07654,-5.49151z" data-paper-data="{&quot;index&quot;:null}" fill="url(#color-8)" stroke-opacity="0.50196" stroke="#80ffff" stroke-width="0" stroke-linecap="butt"/><path d="M268.05569,178.6232c0,0 0.23124,1.09752 0.17074,1.57738c-0.06035,0.47865 -0.31005,1.04305 -0.31005,1.04305l-2.10489,-0.01679c0,0 0.19713,-0.58235 0.23651,-1.03119c0.04111,-0.46854 -0.0267,-1.53217 -0.0267,-1.53217z" data-paper-data="{&quot;index&quot;:null}" fill="url(#color-9)" stroke="none" stroke-width="0" stroke-linecap="butt"/><path d="M272.97686,178.51074c0,0 0.46622,0.84743 0.40572,1.60927c-0.06034,0.76063 -0.49635,1.23607 -0.49635,1.23607l-2.0965,-0.05875c0,0 0.37504,-0.61256 0.41442,-1.18224c0.12169,-0.91166 -0.55876,-1.51708 -0.55876,-1.51708z" data-paper-data="{&quot;index&quot;:null}" fill="url(#color-10)" stroke="none" stroke-width="0" stroke-linecap="butt"/><path d="M214.12374,177.4808c0,0 -2.47422,-2.33387 -3.26479,-3.68299c-0.77382,-1.32053 -1.42945,-4.32785 -1.42945,-4.32785" data-paper-data="{&quot;index&quot;:null}" fill="none" stroke="#1a1a1a" stroke-width="0.25" stroke-linecap="round"/><path d="M215.04218,177.32773c0,0 -2.27012,-1.92567 -3.26479,-3.68299c-1.07997,-1.93283 -1.42946,-4.32785 -1.42946,-4.32785" data-paper-data="{&quot;index&quot;:null}" fill="none" stroke="#1a1a1a" stroke-width="0.25" stroke-linecap="round"/><path d="M216.06268,177.22568c0,0 -2.27012,-1.92567 -3.26479,-3.683c-1.07997,-1.93284 -1.42946,-4.32785 -1.42946,-4.32785" data-paper-data="{&quot;index&quot;:null}" fill="none" stroke="#1a1a1a" stroke-width="0.25" stroke-linecap="round"/><path d="M217.28727,177.42977c0,0 -2.27013,-1.92566 -3.2648,-3.68299c-1.07997,-1.93283 -1.42946,-4.32785 -1.42946,-4.32785" data-paper-data="{&quot;index&quot;:null}" fill="none" stroke="#1a1a1a" stroke-width="0.25" stroke-linecap="round"/><path d="M216.19481,174.50628c0,0 0.56121,0.21759 0.83559,0.24193c0.28969,0.0257 0.85915,-0.09159 0.85915,-0.09159l-0.59316,6.12704c0,0 -1.41595,-0.3663 -1.98674,-0.70877c-0.51732,-0.3104 -1.52302,-1.02971 -1.52302,-1.02971l2.40817,-4.5389z" data-paper-data="{&quot;index&quot;:null}" fill="url(#color-11)" stroke-opacity="0.50196" stroke="#80ffff" stroke-width="0" stroke-linecap="butt"/><path d="M266.17363,174.49951l-0.01767,4.09766l-10.25592,0.1884l-0.07654,-4.26839z" data-paper-data="{&quot;index&quot;:null}" fill="url(#color-12)" stroke="#0d0d0d" stroke-width="0" stroke-linecap="butt"/><path d="M265.25224,179.44202v0.7065h-24.96274v-0.7065z" data-paper-data="{&quot;index&quot;:null}" fill-opacity="0.10196" fill="#ffffff" stroke="#0d0d0d" stroke-width="0" stroke-linecap="butt"/><path d="M231.28802,177.96039v2.56945h-1.20272v-2.56945z" data-paper-data="{&quot;index&quot;:null}" fill="url(#color-13)" stroke="#1a1a1a" stroke-width="0" stroke-linecap="butt"/><path d="M230.65933,179.27244c0.25665,0 0.46469,0.20805 0.46469,0.46469c0,0.25664 -0.20805,0.46469 -0.46469,0.46469c-0.25664,0 -0.46469,-0.20805 -0.46469,-0.46469c0,-0.25665 0.20805,-0.46469 0.46469,-0.46469z" data-paper-data="{&quot;index&quot;:null}" fill="#999999" stroke="#0d0d0d" stroke-width="0" stroke-linecap="butt"/><path d="M239.21504,174.78958v1.31206h-17.98613v-1.31206z" data-paper-data="{&quot;index&quot;:null}" fill="url(#color-14)" stroke="#1a1a1a" stroke-width="0" stroke-linecap="butt"/><path d="M219.75649,180.48634l19.73188,0.20749l-0.05467,0.7107l-19.88476,-0.19566l-2.25621,-0.5697l0.10934,-0.71069z" data-paper-data="{&quot;index&quot;:null}" fill="url(#color-15)" stroke="#1a1a1a" stroke-width="0" stroke-linecap="butt"/><path d="M239.54306,174.02421l-0.05467,7.38033h-2.51478l-0.10934,-7.81768z" data-paper-data="{&quot;index&quot;:null}" fill="url(#color-16)" stroke="#1a1a1a" stroke-width="0" stroke-linecap="butt"/><g data-paper-data="{&quot;index&quot;:null}" fill="none" stroke-width="0.25" stroke-linecap="round"><path d="M241.74075,178.24981v-3.90337" stroke="url(#color-17)"/><path d="M243.80724,174.49952v3.67376" stroke="url(#color-18)"/><path d="M242.73572,174.2699v3.90338" stroke="url(#color-19)"/><path d="M244.80222,178.09674v-3.67377" stroke="url(#color-20)"/><path d="M245.72066,174.34644v3.90337" stroke="url(#color-21)"/><path d="M247.78715,178.17328v-3.67376" stroke="url(#color-22)"/><path d="M246.71563,178.17328v-3.90338" stroke="url(#color-23)"/><path d="M248.78213,178.09674v-3.67377" stroke="url(#color-24)"/><path d="M249.54749,174.19336v3.90338" stroke="url(#color-25)"/><path d="M251.61398,178.0202v-3.67376" stroke="url(#color-26)"/><path d="M250.54247,178.0202v-3.90337" stroke="url(#color-27)"/><path d="M252.60896,177.94367v-3.67377" stroke="url(#color-28)"/></g></g></g></g></svg>