<svg version="1.1" xmlns="http://www.w3.org/2000/svg" xmlns:xlink="http://www.w3.org/1999/xlink" width="15.25" height="22.5" viewBox="0,0,15.25,22.5"><g transform="translate(-232.375,-168.75)"><g fill="#ff0000" stroke="none" stroke-miterlimit="10"><path d="M238.75,188.25h-6.375v-2.125h10.75c0.66667,0 1,-0.25 1,-0.75v-4.125c0,-0.5 -0.33333,-0.75 -1,-0.75h-7c-2.5,0 -3.75,-1 -3.75,-3v-2.75c0,-2 1.25,-3 3.75,-3h2.625v-3h2.5v3h5.125v2.125h-9.5c-0.66667,0 -1,0.25 -1,0.75v3c0,0.5 0.33333,0.75 1,0.75h7c2.5,0 3.75,1 3.75,3v3.875c0,2 -1.25,3 -3.75,3h-2.625v3h-2.5"/></g></g></svg>